<?xml version="1.0" encoding="UTF-8"?>
<svg width="25px" height="28px" viewBox="0 0 25 28" version="1.1" xmlns="http://www.w3.org/2000/svg" xmlns:xlink="http://www.w3.org/1999/xlink">
    <!-- Generator: Sketch 49.3 (51167) - http://www.bohemiancoding.com/sketch -->
    <title>AtomFlower</title>
    <desc>Created with Sketch.</desc>
    <defs>
        <linearGradient x1="49.9991181%" y1="100%" x2="49.9991181%" y2="0%" id="linearGradient-1">
            <stop stop-color="#623AA2" offset="0%"></stop>
            <stop stop-color="#F97794" offset="100%"></stop>
        </linearGradient>
    </defs>
    <g id="Page-1" stroke="none" stroke-width="1" fill="none" fill-rule="evenodd">
        <g id="Artboard" transform="translate(-21.000000, -18.000000)" fill="url(#linearGradient-1)" fill-rule="nonzero">
            <g id="AtomFlower" transform="translate(21.000000, 18.000000)">
                <path d="M24.5193704,6.99917411 C23.4615154,5.14862154 20.8949343,4.5214929 17.624754,5.04455893 C16.4424455,1.92598419 14.6171271,0 12.4997795,0 C10.382432,0 8.55875111,1.92708538 7.37644259,5.04510953 C4.10626235,4.51984111 1.53968124,5.14917214 0.479642845,6.9997247 C-0.580395548,8.85027726 0.163596383,11.4077949 2.24764715,14 C0.163596383,16.5944075 -0.57930385,19.1502733 0.478551148,21.0008259 C1.27603626,22.3943839 2.94196684,23.1305305 5.23616939,23.1305305 C5.73178938,23.1292627 6.22687569,23.097637 6.71869477,23.0358281 C6.93212165,23.0099501 7.14773193,22.9807685 7.36825485,22.943328 C8.55274678,26.0690604 10.3780652,28 12.4992337,28 C14.6204022,28 16.4424455,26.0729146 17.624754,22.9548905 C18.3179189,23.071278 19.0192109,23.1314853 19.7219052,23.1349353 C21.9762608,23.1349353 23.7005972,22.4345774 24.5193704,21.0002753 C24.8419978,20.429188 25.0078101,19.7816478 24.9997173,19.1243953 C24.9997173,17.582727 24.199503,15.8021001 22.7524578,14.0038542 C24.8359627,11.4077949 25.5799546,8.84972667 24.5193704,6.99917411 Z M12.4997795,2.12970464 C13.5505385,2.12970464 14.6673452,3.39607504 15.5166859,5.51586896 C15.7817877,6.18399693 16.0043995,6.86849055 16.1831673,7.56518661 C16.2748699,7.91536556 16.3589306,8.27765761 16.4364412,8.65371456 C16.2230143,8.52102096 16.0046748,8.39108035 15.7841518,8.26334212 C15.5636289,8.13560389 15.343106,8.01006804 15.1247665,7.88948755 C14.2404914,7.39945727 13.3627665,6.97109372 12.4997795,6.59999213 C11.5187391,6.1725868 10.5109359,5.81061736 9.48287315,5.51641955 C10.3338515,3.39772683 11.4479289,2.12970464 12.4997795,2.12970464 Z M16.9560892,14 C16.9560892,14.873245 16.9162423,15.717859 16.8436444,16.5294372 C16.1846229,17.0003802 15.4792043,17.4546217 14.7273885,17.8921619 C13.9883092,18.3227278 13.2426798,18.7131002 12.5008712,19.0610768 C11.768888,18.720258 11.0205293,18.3298856 10.2699871,17.8921619 C9.51944502,17.4544382 8.81366251,16.9990954 8.15427714,16.5327408 C8.08167925,15.7211625 8.04183229,14.8765486 8.04183229,14.0033036 C8.04183229,13.1300586 8.08167925,12.2832422 8.15427714,11.4738664 C8.81329861,11.0029234 9.51871722,10.5477642 10.270533,10.1083887 C11.0210751,9.66791206 11.7672504,9.28249499 12.4992337,8.94167617 C13.2312169,9.28249499 13.9773923,9.67066504 14.7279344,10.1083887 C15.4784765,10.5461124 16.184259,11.0009046 16.8436444,11.4672592 C16.9162423,12.2782869 16.9560892,13.1256538 16.9560892,14 Z M2.30823637,8.06402643 C2.70506845,7.37082629 3.74163535,7.00743304 5.19413904,7.00743304 C5.70554898,7.01047569 6.21617078,7.04836957 6.72251571,7.12085578 C7.42862552,7.22299307 8.12761786,7.37011277 8.81530006,7.56133244 C9.03800637,7.62299917 9.26562533,7.68907067 9.49542768,7.76229992 C9.6198812,7.80029103 9.74651813,7.84268691 9.87315505,7.88508279 C9.65481553,8.00566327 9.436476,8.13119912 9.21376969,8.25893735 C8.99106337,8.38667558 8.77709064,8.5166162 8.56148036,8.64930979 C7.70067678,9.17678059 6.89118299,9.7284776 6.14282427,10.2939395 C5.28637745,10.9374114 4.47225956,11.6363032 3.70560932,12.3862036 C2.31314901,10.5863059 1.78312981,8.98242026 2.30823637,8.06402643 Z M6.4719711,20.9226413 C4.3606279,21.173713 2.80550463,20.8042632 2.30823637,19.9359736 C2.17098443,19.6831363 2.10226213,19.3982598 2.10900155,19.1100798 C2.10900155,18.1872812 2.66958828,16.9544972 3.70670102,15.6104928 C4.14628591,15.0430818 4.62199677,14.5051151 5.13082057,14 C5.38409442,13.7467259 5.65374374,13.4890471 5.93758512,13.235773 C5.93048908,13.4890471 5.92830569,13.7445235 5.92830569,14 C5.92830569,14.2554765 5.92830569,14.5109529 5.93758512,14.764227 C5.96105662,15.7817281 6.02928772,16.763991 6.14173257,17.7005545 C6.26708818,18.7738793 6.46145596,19.8378532 6.72360741,20.8857514 C6.64063839,20.900801 6.55694157,20.9130976 6.47251695,20.9226413 L6.4719711,20.9226413 Z M12.4997795,25.8702954 C11.4462913,25.8702954 10.3300305,24.5973178 9.47850636,22.4725685 C9.21643676,21.8128601 8.99619775,21.1370181 8.819121,20.4491289 C8.7274184,20.0967476 8.64062844,19.7300507 8.56366375,19.3479372 C8.77709064,19.4806308 8.99543016,19.6105714 9.21595308,19.7383097 C9.436476,19.8660479 9.66627835,19.9959885 9.88898467,20.119322 C10.7661637,20.6043969 11.6357009,21.0305581 12.4905001,21.3994573 C13.4752279,21.8255297 14.4860308,22.1874633 15.5166859,22.4830299 C14.6667993,24.6022732 13.5499927,25.8702954 12.4997795,25.8702954 Z M22.6918686,19.9359736 C22.1662162,20.8543674 20.5193903,21.1946356 18.2743141,20.8802454 C17.5682043,20.7781081 16.869212,20.6309884 16.1815298,20.4397687 C15.8365533,20.3450663 15.4822974,20.2360483 15.1209455,20.1154678 C15.3392851,19.9948873 15.5619914,19.8693515 15.7825143,19.7416132 C16.0030372,19.613875 16.2191933,19.4839344 16.4348036,19.3512408 C17.2956072,18.82377 18.105101,18.272073 18.8534597,17.7044087 C19.710303,17.0603472 20.5252921,16.3614901 21.2934039,15.6121446 C22.6847725,17.4136941 23.217521,19.0175797 22.6918686,19.9359736 Z M19.8687385,14 C19.6140091,14.2569447 19.3441778,14.5124212 19.0592447,14.7664294 C19.0663407,14.5131553 19.0685241,14.2576788 19.0685241,14 C19.0685241,13.7423212 19.0685241,13.4862941 19.0592447,13.2335706 C19.0357732,12.2160695 18.9675421,11.2338066 18.8550973,10.2972431 C18.7302447,9.22799399 18.5366059,8.16806396 18.2754058,7.12415936 C18.7824694,7.04944622 19.2940756,7.01044309 19.8065117,7.00743304 C21.2562862,7.00743304 22.2955823,7.3697251 22.6918686,8.06292524 C23.217521,8.98131907 22.6847725,10.5901601 21.2939497,12.3933614 C20.8532109,12.9589144 20.377175,13.495549 19.8687385,14 Z" id="Shape"></path>
            </g>
        </g>
    </g>
</svg>