
<svg width="20px" height="18px" viewBox="0 0 20 18" version="1.1" xmlns="http://www.w3.org/2000/svg" xmlns:xlink="http://www.w3.org/1999/xlink">
    <!-- Generator: Sketch 51.2 (57519) - http://www.bohemiancoding.com/sketch -->
    <desc>Created with Sketch.</desc>
    <defs></defs>
    <g id="Page-1" stroke="none" stroke-width="1" fill="none" fill-rule="evenodd">
        <g id="sf" fill="#ffffff" fill-rule="nonzero">
            <g id="Layer-1">
                <path d="M19.9943804,18 L0,18 L0,2.16 L20,2.16 L20,18 L19.9943804,18 Z M1.5341388,16.4200512 L18.4546221,16.4200512 L18.4546221,3.74573621 L1.5341388,3.74573621 L1.5341388,16.4200512 Z" id="svg_3"></path>
                <path d="M16.9213483,11.52 L3.07865169,11.52 C1.38202247,11.52 0,10.2271533 0,8.64 L0,6.48 L1.53932584,6.48 L1.53932584,8.64 C1.53932584,9.43357664 2.23033708,10.08 3.07865169,10.08 L16.9213483,10.08 C17.7696629,10.08 18.4606742,9.43357664 18.4606742,8.64 L18.4606742,6.48 L20,6.48 L20,8.64 C19.994382,10.2324088 18.6179775,11.52 16.9213483,11.52 Z" id="svg_5"></path>
                <path d="M13.1034483,4.32 L6.89655172,4.32 L6.89655172,1.728 C6.89655172,0.775708029 7.59312862,0 8.44827586,0 L11.5517241,0 C12.4068714,0 13.1034483,0.775708029 13.1034483,1.728 L13.1034483,4.32 Z M8.44827586,2.592 L11.5517241,2.592 L11.5517241,1.728 L8.44827586,1.728 L8.44827586,2.592 Z" id="svg_7"></path>
                <rect id="svg_9" x="14.4827586" y="7.2" width="2.06896552" height="2.16"></rect>
                <rect id="svg_11" x="4.82758621" y="7.2" width="1.37931034" height="2.16"></rect>
            </g>
        </g>
    </g>
</svg>