<?xml version="1.0" encoding="UTF-8"?>
<svg width="18px" height="25px" viewBox="0 0 18 25" version="1.1" xmlns="http://www.w3.org/2000/svg" xmlns:xlink="http://www.w3.org/1999/xlink">
    <!-- Generator: Sketch 51.2 (57519) - http://www.bohemiancoding.com/sketch -->
    <title>map-marker copy 2</title>
    <desc>Created with Sketch.</desc>
    <defs></defs>
    <g id="Page-1" stroke="none" stroke-width="1" fill="none" fill-rule="evenodd">
        <g id="Artboard" transform="translate(-865.000000, -642.000000)" fill-rule="nonzero">
            <g id="map-marker-copy-2" transform="translate(866.000000, 643.000000)">
                <path d="M8,0 C3.5817,2.3685e-15 0,3.5817 0,8 C0,9.421 0.3816,10.75 1.0312,11.906 C1.1391,12.098 1.2522,12.287 1.375,12.469 L8,24 L14.625,12.469 C14.727,12.318 14.815,12.158 14.906,12 L14.969,11.906 C15.618,10.75 16,9.421 16,8 C16,3.5817 12.418,0 8,0 Z M8,4 C10.209,4 12,5.7909 12,8 C12,10.209 10.209,12 8,12 C5.7909,12 4,10.209 4,8 C4,5.7909 5.7909,4 8,4 Z" id="Shape" stroke="#5CB6B5" fill="#6BE1A7"></path>
                <path d="M8,3 C5.2386,3 3,5.2386 3,8 C3,10.761 5.2386,13 8,13 C10.761,13 13,10.761 13,8 C13,5.2386 10.761,3 8,3 Z M8,5 C9.657,5 11,6.3431 11,8 C11,9.6569 9.657,11 8,11 C6.343,11 5,9.6569 5,8 C5,6.3431 6.343,5 8,5 Z" id="Shape" fill="#2E5F5E"></path>
            </g>
        </g>
    </g>
</svg>