<svg xmlns="http://www.w3.org/2000/svg" viewBox="0 0 18.75 21.25" height="21.25" width="18.75"><g fill="none" stroke="#fff" stroke-width="7.5" stroke-linejoin="round"><path d="M8.035 3.984L6.307 3.13.47 5.718v15.08l5.76-2.588 6.203 2.587 5.848-2.29V3.426l-1.576.557" stroke-linecap="round" stroke-width=".9375"/><path d="M6.194 3.032v14.95" stroke-width=".9375"/><path d="M12.556 11.485v8.98" stroke-linecap="round" stroke-width=".9375"/><path d="M13.8 5.486c-1.018 1.47-1.166 3.323-1.166 3.323-.022.102-.112.102-.135 0 0 0-.194-1.855-1.19-3.325-.827-1.16-1.2-1.617-1.2-2.563 0-1.355 1.075-2.437 2.434-2.437 1.348 0 2.458 1.082 2.458 2.437 0 .946-.726 1.869-1.2 2.564z" stroke-width=".9375"/></g></svg>