<svg width="22" height="15" viewBox="0 0 22 15" xmlns="http://www.w3.org/2000/svg" xmlns:xlink="http://www.w3.org/1999/xlink"><title>Untitled 5</title><defs><path id="a" d="M.06 0H22v15H.06V0z"/></defs><g stroke-width="1.1" fill="none" fill-rule="evenodd"><mask id="b" fill="#fff"><use xlink:href="#a"/></mask><path d="M5.69 9.208c1.47 0 2.663-1.22 2.663-2.723C8.353 4.98 7.16 3.76 5.69 3.76S3.03 4.98 3.03 6.486c0 1.504 1.19 2.723 2.66 2.723zm8.794-1.692c1.928 0 3.49-1.6 3.49-3.57 0-1.973-1.562-3.57-3.49-3.57-1.928 0-3.49 1.597-3.49 3.57 0 1.97 1.562 3.57 3.49 3.57zm-5.64 2.812c-.88-.645-1.964-1.03-3.14-1.03-2.943 0-5.33 2.385-5.33 5.327l21.25-.036c0-3.925-3.18-7.105-7.104-7.105s-7.105 3.18-7.105 7.104l1.43-4.262z" stroke="#FFF" stroke-linecap="round" stroke-linejoin="round" mask="url(#b)"/></g></svg>