<svg width="15" height="18" viewBox="0 0 15 18" xmlns="http://www.w3.org/2000/svg" xmlns:xlink="http://www.w3.org/1999/xlink"><title>Untitled 6</title><defs><path id="a" d="M.06 0H15v17.94H.06V0z"/></defs><g stroke-width="1.1" fill="none" fill-rule="evenodd"><mask id="b" fill="#fff"><use xlink:href="#a"/></mask><path d="M.375.375v17.22l1.74-.848 1.74.878 1.844-.878 1.818.848 1.77-.848 1.816.848 1.73-.848 1.79.848V.375H.375z" stroke="#FFF" stroke-linejoin="round" mask="url(#b)"/><path d="M9.934 10.058c0-.978-.648-1.534-2.185-1.87v-2.36c.535.086 1.04.297 1.526.69l.435-.575c-.586-.432-1.172-.7-1.93-.767V4.6H7.13v.556c-1.244.058-2.124.787-2.124 1.775 0 1.008.657 1.536 2.154 1.872V11.2c-.758-.077-1.355-.393-1.962-.91l-.455.574c.708.576 1.487.91 2.387.988v.96h.647v-.94c1.274-.077 2.154-.778 2.154-1.814zM7.162 8.053c-1.112-.268-1.375-.623-1.375-1.17 0-.585.526-1.055 1.375-1.084v2.253zm1.993 2.053c0 .633-.546 1.084-1.406 1.123V8.935c1.122.26 1.405.604 1.405 1.17z" fill="#FFF"/></g></svg>